<svg width="350" height="115" viewBox="0 0 350 115" fill="none" xmlns="http://www.w3.org/2000/svg">
<path d="M119.791 84.0029C120.383 87.8114 121.579 90.488 123.377 92.0326C125.197 93.5561 127.8 94.3178 131.185 94.3178C134.846 94.3178 137.734 92.8896 139.85 90.0331C141.987 87.1767 143.076 83.2094 143.119 78.1313H124.933V73.1166H143.119C143.119 68.102 142.018 64.1347 139.818 61.2148C137.639 58.2948 134.581 56.8349 130.646 56.8349C127.472 56.8349 124.996 57.6601 123.219 59.3105C121.463 60.9609 120.32 63.6269 119.791 67.3085H113.666C114.152 62.4631 115.877 58.6757 118.839 55.9462C121.801 53.1956 125.737 51.8202 130.646 51.8202C134.369 51.8202 137.639 52.7089 140.453 54.4863C143.288 56.2424 145.457 58.7603 146.959 62.04C148.482 65.2984 149.244 69.0541 149.244 73.3071V77.9091C149.244 82.162 148.493 85.9177 146.991 89.1762C145.488 92.4347 143.362 94.942 140.611 96.6982C137.882 98.4332 134.74 99.3007 131.185 99.3007C126.149 99.3007 122.108 97.9783 119.061 95.3334C116.035 92.6674 114.237 88.8905 113.666 84.0029H119.791Z" fill="#FCAC45"/>
<path d="M119.791 84.0029C120.383 87.8114 121.579 90.488 123.377 92.0326C125.197 93.5561 127.8 94.3178 131.185 94.3178C134.846 94.3178 137.734 92.8896 139.85 90.0331C141.987 87.1767 143.076 83.2094 143.119 78.1313H124.933V73.1166H143.119C143.119 68.102 142.018 64.1347 139.818 61.2148C137.639 58.2948 134.581 56.8349 130.646 56.8349C127.472 56.8349 124.996 57.6601 123.219 59.3105C121.463 60.9609 120.32 63.6269 119.791 67.3085H113.666C114.152 62.4631 115.877 58.6757 118.839 55.9462C121.801 53.1956 125.737 51.8202 130.646 51.8202C134.369 51.8202 137.639 52.7089 140.453 54.4863C143.288 56.2424 145.457 58.7603 146.959 62.04C148.482 65.2984 149.244 69.0541 149.244 73.3071V77.9091C149.244 82.162 148.493 85.9177 146.991 89.1762C145.488 92.4347 143.362 94.942 140.611 96.6982C137.882 98.4332 134.74 99.3007 131.185 99.3007C126.149 99.3007 122.108 97.9783 119.061 95.3334C116.035 92.6674 114.237 88.8905 113.666 84.0029H119.791Z" fill="url(#paint0_linear)"/>
<path d="M192.072 64.8647C192.072 62.4102 191.173 60.4636 189.375 59.0248C187.597 57.5649 185.09 56.8349 181.853 56.8349C179.144 56.8349 176.87 57.586 175.029 59.0883C173.209 60.5694 172.299 62.4102 172.299 64.6108H166.206C166.206 62.1563 166.872 59.9558 168.205 58.0092C169.559 56.0626 171.442 54.5497 173.854 53.4706C176.267 52.3704 178.933 51.8202 181.853 51.8202C187.015 51.8202 191.025 52.984 193.881 55.3114C196.738 57.6178 198.166 60.8339 198.166 64.9599C198.166 67.0969 197.51 69.0435 196.198 70.7997C194.886 72.5559 193.056 73.9418 190.708 74.9574C196.145 76.7771 198.864 80.3847 198.864 85.7802C198.864 89.9273 197.32 93.2175 194.23 95.6508C191.141 98.0841 187.015 99.3007 181.853 99.3007C178.785 99.3007 175.992 98.7612 173.474 97.6821C170.977 96.5818 169.03 95.0266 167.634 93.0165C166.237 91.0064 165.539 88.6155 165.539 85.8437H171.633C171.633 88.2769 172.596 90.3082 174.521 91.9374C176.446 93.5455 178.89 94.3495 181.853 94.3495C185.174 94.3495 187.819 93.5772 189.787 92.0326C191.776 90.488 192.771 88.4462 192.771 85.9072C192.771 80.4905 189.417 77.7293 182.709 77.6235H176.997V72.6088H182.678C185.767 72.5453 188.105 71.8471 189.692 70.5141C191.279 69.1811 192.072 67.2979 192.072 64.8647Z" fill="#FCAC45"/>
<path fill-rule="evenodd" clip-rule="evenodd" d="M68.6937 15.5261L54.9252 76.0044L54.3938 78.3384H52H0V72.3384H49.6062L66.0748 0L71.9501 0.121103L89.3351 94.2545L92.5401 74.8496L92.9548 72.3384H95.5H113V78.3384H98.0452L92.4599 112.155L86.5499 112.211L68.6937 15.5261ZM120 78.3384V72.3384H165V78.3384H120ZM172 78.3384H350V72.3384H172V78.3384Z" fill="white"/>
<path d="M252.911 77.0522C252.911 81.5802 252.149 85.5369 250.625 88.9223C249.102 92.2865 246.944 94.8573 244.151 96.6347C241.358 98.412 238.099 99.3007 234.375 99.3007C230.736 99.3007 227.509 98.412 224.695 96.6347C221.881 94.8362 219.691 92.2865 218.125 88.9858C216.581 85.6638 215.787 81.8235 215.745 77.4648V74.1322C215.745 69.6889 216.517 65.7639 218.062 62.3573C219.607 58.9508 221.786 56.3482 224.6 54.5497C227.435 52.7301 230.673 51.8202 234.312 51.8202C238.015 51.8202 241.273 52.7195 244.087 54.518C246.923 56.2953 249.102 58.8873 250.625 62.2939C252.149 65.6793 252.911 69.6254 252.911 74.1322V77.0522ZM246.849 74.0688C246.849 68.5886 245.748 64.3886 243.548 61.4687C241.347 58.5276 238.269 57.0571 234.312 57.0571C230.461 57.0571 227.425 58.5276 225.203 61.4687C223.003 64.3886 221.871 68.4511 221.807 73.6562V77.0522C221.807 82.363 222.918 86.5419 225.14 89.5888C227.382 92.6145 230.461 94.1274 234.375 94.1274C238.311 94.1274 241.358 92.6991 243.516 89.8427C245.674 86.9651 246.785 82.8497 246.849 77.4965V74.0688Z" fill="#FCAC45"/>
<path d="M307.657 98.6659H301.531V57.4697H278.743V98.6659H272.649V52.455H307.657V98.6659Z" fill="#FCAC45"/>
<defs>
<linearGradient id="paint0_linear" x1="131" y1="38.6659" x2="131" y2="114.666" gradientUnits="userSpaceOnUse">
<stop/>
<stop offset="0.588542" stop-color="white" stop-opacity="0"/>
</linearGradient>
</defs>
</svg>
